inDegrees=no
num_controls=7
num_derivatives=13
num_iterations=165
num_multipliers=7
num_parameters=0
num_slacks=7
num_states=26
objective=5.274489
objective_accelerations=0.604148
objective_balance=0.038386
objective_effort=0.586882
objective_height=3.951969
objective_ligament=0.093105
solver_duration=1727.599375
status=Solve_Succeeded
success=true
DataType=double
version=3
OpenSimVersion=4.4-2022-07-23-0e9fedc
endheader
time	/jointset/ground_pelvis/pelvis_tilt/value	/jointset/ground_pelvis/pelvis_tx/value	/jointset/ground_pelvis/pelvis_ty/value	/jointset/hip_l/hip_flexion_l/value	/jointset/hip_l/hip_adduction_l/value	/jointset/hip_l/hip_rotation_l/value	/jointset/back/lumbar_extension/value	/jointset/patellofemoral_l/patellar_flexion_l/value	/jointset/knee_l/knee_flexion_l/value	/jointset/knee_l/knee_adduction_l/value	/jointset/knee_l/knee_rotation_l/value	/jointset/ankle_l/ankle_angle_l/value	/jointset/subtalar_l/subtalar_angle_l/value	/jointset/ground_pelvis/pelvis_tilt/speed	/jointset/ground_pelvis/pelvis_tx/speed	/jointset/ground_pelvis/pelvis_ty/speed	/jointset/hip_l/hip_flexion_l/speed	/jointset/hip_l/hip_adduction_l/speed	/jointset/hip_l/hip_rotation_l/speed	/jointset/back/lumbar_extension/speed	/jointset/patellofemoral_l/patellar_flexion_l/speed	/jointset/knee_l/knee_flexion_l/speed	/jointset/knee_l/knee_adduction_l/speed	/jointset/knee_l/knee_rotation_l/speed	/jointset/ankle_l/ankle_angle_l/speed	/jointset/subtalar_l/subtalar_angle_l/speed	/forceset/tau_hip_flexion_l	/forceset/tau_hip_adduction_l	/forceset/tau_hip_rotation_l	/forceset/tau_knee_flexion_l	/forceset/tau_ankle_angle_l	/forceset/tau_subtalar_angle_l	/forceset/tau_lumbar_extension	lambda_cid13_p0	lambda_cid13_p1	lambda_cid13_p2	lambda_cid13_p3	lambda_cid13_p4	lambda_cid13_p5	lambda_cid14_p0	/jointset/ground_pelvis/pelvis_tilt/accel	/jointset/ground_pelvis/pelvis_tx/accel	/jointset/ground_pelvis/pelvis_ty/accel	/jointset/hip_l/hip_flexion_l/accel	/jointset/hip_l/hip_adduction_l/accel	/jointset/hip_l/hip_rotation_l/accel	/jointset/back/lumbar_extension/accel	/jointset/patellofemoral_l/patellar_flexion_l/accel	/jointset/knee_l/knee_flexion_l/accel	/jointset/knee_l/knee_adduction_l/accel	/jointset/knee_l/knee_rotation_l/accel	/jointset/ankle_l/ankle_angle_l/accel	/jointset/subtalar_l/subtalar_angle_l/accel	gamma_cid13_p0	gamma_cid13_p1	gamma_cid13_p2	gamma_cid13_p3	gamma_cid13_p4	gamma_cid13_p5	gamma_cid14_p0
1	-0.1560005832922424	-0.07094353991436704	0.591215407701734	1.625405886409697	-0.3129053084236582	0.1086420247854479	-0.9599295912143956	1.646718307607725	1.646718307607726	0.006749884833271154	-0.1745306638091891	0.2942503358946804	0.09169456750936386	0.08672330639277724	0.01976702266052488	0.07594514979799995	-0.2959277903488475	-0.01309126365805322	-0.06017814008770634	0.0001523616268443963	-0.1557410990658084	-0.1557410990658186	-0.008351107140105153	-1.117091731320128e-05	0.04535755157719133	0.004907788634861987	-0.4218785021168054	-0.0005722762981323822	-0.0002283034243686342	-0.4238667229515483	0.05210752913410435	0.01440838451286911	0.4572565888365873	-37.54081581904587	3.981163724706582	-5.276010939725639	17.73911572770446	-831.8717124430095	-66.18085289509638	-0.0387014635895548	0.682972313122944	-0.1304036602681208	2.097743518024851	-6.25564137110123	-0.2641100580488553	-1.740018857285637	-0.02268634549327023	-6.001550496275326	-6.001550496275319	-0.7655354630956702	-0.02380588645292456	-0.8555883178509635	-0.7401576949885097	-3.46129101154895e-09	1.18874497743946e-08	-1.002404683487574e-08	-1.075525644840479e-08	-2.008944577593161e-08	1.332827796363479e-07	-1.25498492708458e-08
1.01	-0.155099192035827	-0.07075227847142035	0.5920795111277649	1.622134439563257	-0.3130486013539886	0.1079533737903288	-0.9599287885032179	1.644861364005801	1.644861364005751	0.006629047016653597	-0.1745306160570294	0.2946611967288228	0.09170778011617509	0.09358599718686909	0.01849784294205194	0.09685880452088276	-0.3583406712527111	-0.01555554584455963	-0.07754171197273088	1.398486570797054e-05	-0.2156153419962671	-0.2156153419962606	-0.01580476661727692	1.72219273864456e-05	0.03679763474886376	-0.002258415220935769	-0.4211976557594586	-0.0004029232346020328	-0.000266041275723551	-0.4236136371854268	0.05187772677253739	0.01463842499452182	0.4569594649841939	-37.55638622045586	3.863265161383635	-5.233549660056003	17.53665093213976	-831.3378784432286	-66.28901460301299	-0.03873057746620964	0.6925718687974348	-0.1232915864474073	2.085661832088642	-6.230978937939166	-0.2358138957733245	-1.732989005003959	-0.008542728894503224	-5.975515488381436	-5.975515488378931	-0.7335417808387741	0.01564102052256693	-0.8587419811405552	-0.7038233538364256	-6.941430422806883e-09	-1.889293505093878e-09	-7.650413923525966e-10	-1.501026464112224e-08	-2.487283463122967e-08	1.601774520867183e-07	-1.895848253803199e-08
1.02	-0.1541282429902394	-0.07057333211742013	0.5931522481775569	1.618239490410079	-0.3132161824255694	0.1070913945461761	-0.9599291954356962	1.642406647115183	1.64240664711517	0.006434020487197727	-0.1745303885463374	0.2949859486715182	0.09164953635983622	0.100634864230732	0.01730400487123087	0.1176718745504348	-0.4206282516729859	-0.01794889190393232	-0.09484378989349411	-8.956739427143433e-05	-0.2752957568047466	-0.2752957568047236	-0.02318884972689216	2.47807957297565e-05	0.02813577328785557	-0.009383483995182735	-0.420516809402499	-0.0002335701711306536	-0.0003037791267520934	-0.4233605514192934	0.05164792441104656	0.0148684654761247	0.4566623411314455	-37.57891256212825	3.746653450320392	-5.191371866433792	17.38380864190755	-830.8929499932418	-66.36731848773876	-0.03876393341142528	0.7202075630773216	-0.1153353307377994	2.077626579358694	-6.230581274383503	-0.2499228326220961	-1.727720064433349	-0.01572144526335957	-5.96278487187947	-5.962784871879482	-0.7516201895843727	-0.02797268172417011	-0.8759772443871732	-0.7319306786783671	-1.058345644921587e-08	-1.601921320659753e-08	1.088961619997652e-08	-1.689748722651048e-08	-3.047371197976038e-08	1.762241838279362e-07	-2.408081710553822e-08
1.03	-0.1530860931283908	-0.07040592167760733	0.5944325303461961	1.613722699655861	-0.3134072872259434	0.1060567256877579	-0.9599303207397026	1.639356076818618	1.639356076818588	0.006165531285019865	-0.1745301780987413	0.2952233657708924	0.09152023850879477	0.1078038697213845	0.01619311176713622	0.1383597070263363	-0.4826688433982704	-0.02025273723773491	-0.1120746664509831	-0.0001152114182357809	-0.3347881296802097	-0.3347881296802236	-0.03049504578239007	1.923124861646057e-05	0.01931085006478603	-0.01646706411308997	-0.4193329088988929	-1.83346606239611e-05	-0.0003376090396239845	-0.4231757852104417	0.05192901988291347	0.01512462267504261	0.4560191892018267	-37.41029000017902	3.583633141660714	-5.139971131339964	17.0446357968252	-830.1118985694496	-66.48732925557717	-0.03881300603481095	0.7165567704340465	-0.1067157623452822	2.060626508471943	-6.181644614520381	-0.2177114065479961	-1.718497729606841	0.007056442235868036	-5.937931702142712	-5.937931702148137	-0.7180499865424154	0.01345134508437632	-0.8912726806554235	-0.6952159746473007	-1.42271343798611e-08	-3.015273674914216e-08	2.256871922240572e-08	-1.876054873427289e-08	-3.608293104760979e-08	1.921602222966117e-07	-2.919002617610894e-08
1.04	-0.1519719912659732	-0.07024917006125495	0.5959189438249455	1.608587333685756	-0.3136208496842224	0.1048502028081225	-0.9599310885968813	1.635711489151946	1.635711489151938	0.005824393987707406	-0.1745299636593768	0.2953714290741569	0.09132037599731446	0.1150252643469955	0.0151722401791446	0.1588981365727269	-0.5443432948403432	-0.02244042348308377	-0.1292145941364889	-1.916251421247936e-05	-0.3940992308262095	-0.3940992308262599	-0.0377184687582902	2.557915307320827e-05	0.01026501406616574	-0.02349641608302223	-0.4181490083954427	0.0001969008498670747	-0.0003714389524246874	-0.4229910190015931	0.05221011535481014	0.01538077987395156	0.4553760372720674	-37.24899014206314	3.421894548890661	-5.088773869766431	16.75608081839246	-829.4237100308857	-66.57948704369424	-0.03886602036714184	0.7306853900691348	-0.09733102751721573	2.047745993456493	-6.157353217741214	-0.2266910149313878	-1.709530290036712	0.008617140341679728	-5.926530525986792	-5.926530525986738	-0.7350655736648481	-0.0255931914102368	-0.9201597994973627	-0.7210850490834395	-2.037262059905144e-08	-4.297374175546556e-08	3.583657107745303e-08	-1.613837965909982e-08	-4.18274988676011e-08	2.200906087294628e-07	-3.562076967491726e-08
1.05	-0.1507857037635663	-0.07010197383152408	0.5976099354098566	1.602837304431626	-0.3138557002348761	0.1034727365938243	-0.9599288198400937	1.631474839617925	1.631474839617974	0.005411516926237514	-0.1745296415117683	0.2954281391719347	0.0910506175697003	0.1222118115066929	0.01430244637454261	0.1792696296956408	-0.6055777312931654	-0.0245111806887359	-0.1462597684220419	0.0006423590579246721	-0.4531868759118587	-0.4531868759119268	-0.04484110894843631	3.662711750665569e-05	0.001061330129816206	-0.03043589254357847	-0.4180522903320159	0.0004482717163798937	-0.0004259186964543507	-0.422356054310022	0.05242693637711732	0.015719979703215	0.4560460180508878	-37.12092859188098	3.215875409621703	-5.014486177979814	16.07566419057369	-829.3229423821331	-66.65833821490138	-0.03892327228402868	0.7095700901247309	-0.07649011316909816	2.027258791308095	-6.093771421622616	-0.1944896064584362	-1.699213460613463	0.120173739612041	-5.893303005958427	-5.893303005960915	-0.6985206605390866	0.01413573103402779	-0.9228299540946281	-0.6774689066563999	-2.659628832725879e-08	-5.575373055753205e-08	4.915407133351966e-08	-1.337604712821004e-08	-4.757629633609684e-08	2.483958185361942e-07	-4.2092811124608e-08
1.06	-0.1495281646473147	-0.06996241285108608	0.5995037234899149	1.596477474300559	-0.3141107026641828	0.1019253781441	-0.9599148796290702	1.626648629331828	1.626648629331843	0.00492788197908075	-0.1745292724963811	0.2953923409776698	0.09071204638505792	0.1292755871145572	0.01364519032057459	0.1994574356024074	-0.6663034702487755	-0.02647079921744147	-0.1631930412195567	0.002314043588463055	-0.5120113812417035	-0.5120113812417891	-0.05187004589256884	3.495270849582973e-05	-0.00823664434217943	-0.03725896748873122	-0.4179555722682184	0.00069964258293578	-0.0004803984404460234	-0.421721089618458	0.05264375739934048	0.01605917953249644	0.4567159988300462	-37.00065304314593	3.011228193556561	-4.940426751449653	15.44656276412025	-829.3202112635406	-66.71095783166551	-0.03898375868890031	0.7061310797024856	-0.05482347739044049	2.011008550227043	-6.055613718298894	-0.2044632795421335	-1.687149992429078	0.2106497320190548	-5.873902574825889	-5.873902574825803	-0.7163249244621754	-0.02813766609920139	-0.9390179066266165	-0.6978047460028343	-3.188623233955047e-08	-6.84610413182375e-08	6.514192004692032e-08	-1.170572061004412e-08	-5.339280607092059e-08	2.710484266104563e-07	-4.800029269051813e-08
1.07	-0.148200547615125	-0.06982830340913249	0.6015984345237196	1.589512942256826	-0.3143847042865395	0.100209236727741	-0.9598789848625592	1.621235499600819	1.621235499600856	0.004374493197980159	-0.174528965611023	0.2952630467867475	0.09030587575007221	0.1362319449568067	0.01321797681644884	0.2194507344239407	-0.7265176999004755	-0.02830684950658778	-0.1800134312439353	0.005052955927335334	-0.5705705372038224	-0.5705705372038753	-0.05879016453704433	2.680438468575354e-05	-0.0176419736285478	-0.04395072248049586	-0.4179189763140331	0.0009988122077641882	-0.0005483022517504362	-0.4208314584785784	0.0528842869899382	0.01648540377134025	0.45752264870882	-36.85586058026468	2.752056214275326	-4.843468486925244	14.69413450383087	-829.2216724333322	-66.8128351459121	-0.03905519990017534	0.6880004127750045	-0.03048047093591332	1.988373113051563	-5.991549318315062	-0.1697751524678998	-1.676256446943868	0.3337189143307722	-5.840307084766306	-5.840307084761351	-0.6772652309380577	0.01292620773388231	-0.9442654546504813	-0.6511914628644387	-3.712651019674026e-08	-8.116448622567907e-08	8.127180857188132e-08	-1.009347951808692e-08	-5.921291752203839e-08	2.934003643797998e-07	-5.387774447537608e-08
1.08	-0.1468038445492482	-0.06969722813902207	0.6038920550587248	1.58194882357069	-0.3146763862615501	0.098325536823221	-0.9598100595866477	1.615238101314618	1.615238101314626	0.003752421251146799	-0.1745287242842319	0.2950391042999594	0.08983352144774902	0.1430927938505782	0.01303835595193686	0.2392393358427714	-0.7862207987405536	-0.0300068697504136	-0.1967047388483873	0.00892014544653439	-0.6288650922804133	-0.6288650922804339	-0.0656066790414357	2.184099110724647e-05	-0.02716630351526502	-0.05049570095631472	-0.4178823803596559	0.00129798183260414	-0.0006162060629233112	-0.4199418273386993	0.05312481658048859	0.01691162801017486	0.4583292985877695	-36.7194740967594	2.494386209406476	-4.746783811442249	13.99266021785498	-829.2289480447761	-66.8907595537097	-0.03912928843482277	0.6870292900068766	-0.005304949467706037	1.970069069686539	-5.95338755597461	-0.1772572704780862	-1.661333508443774	0.4363051680840683	-5.82098239772028	-5.82098239772029	-0.6956040964453906	-0.02750068005297888	-0.9628180266964202	-0.6684494428137606	-4.118117174415278e-08	-9.25014397554443e-08	9.942105723891144e-08	-1.003522545791412e-08	-6.373142717080556e-08	3.129601702127075e-07	-5.939085034661051e-08
